<?xml version="1.0" standalone="no"?><!DOCTYPE svg PUBLIC "-//W3C//DTD SVG 1.1//EN" "http://www.w3.org/Graphics/SVG/1.1/DTD/svg11.dtd"><svg class="icon" width="200px" height="200.00px" viewBox="0 0 1024 1024" version="1.1" xmlns="http://www.w3.org/2000/svg"><path fill="#d81e06" d="M800 320c-17.7 0-32 14.3-32 32v447c0 18.2-14.8 33-33 33H289c-18.2 0-33-14.8-33-33V352c0-17.7-14.3-32-32-32s-32 14.3-32 32v447c0 53.5 43.5 97 97 97h446c53.5 0 97-43.5 97-97V352c0-17.7-14.3-32-32-32zM864 192H160c-17.7 0-32 14.3-32 32s14.3 32 32 32h704c17.7 0 32-14.3 32-32s-14.3-32-32-32zM416 160h192c17.7 0 32-14.3 32-32s-14.3-32-32-32H416c-17.7 0-32 14.3-32 32s14.3 32 32 32z"  /><path fill="#d81e06" d="M384 736V416c0-17.7-14.3-32-32-32s-32 14.3-32 32v320c0 17.7 14.3 32 32 32s32-14.3 32-32zM544 736V416c0-17.7-14.3-32-32-32s-32 14.3-32 32v320c0 17.7 14.3 32 32 32s32-14.3 32-32zM704 736V416c0-17.7-14.3-32-32-32s-32 14.3-32 32v320c0 17.7 14.3 32 32 32s32-14.3 32-32z"  /></svg>